# Blender v2.78 (sub 4) OBJ File: ''
# www.blender.org
mtllib mask.mtl
o Object
v 0.095285 0.264637 0.156540
v -0.197377 0.264637 0.156540
v -0.197377 -0.028025 0.149734
v 0.680610 0.264637 0.095285
v 0.680610 0.407565 0.095285
v 0.680610 0.550494 0.095285
v 0.387948 -0.028025 0.095285
v 0.387948 0.264637 0.095285
v 0.387948 0.550494 0.095285
v 0.095285 -0.313882 0.095285
v 0.095285 -0.028025 0.095285
v 0.095285 0.550494 0.095285
v 0.095285 0.836350 0.095285
v -0.197377 -0.313882 0.095285
v -0.197377 0.550494 0.095285
v -0.197377 0.836350 0.095285
v -0.490039 -0.028025 0.095285
v -0.490039 0.264637 0.095285
v -0.490039 0.550494 0.095285
v -0.782702 0.264637 0.095285
v -0.782702 0.407565 0.095285
v -0.782702 0.550494 0.095285
v 0.830345 0.264637 0.006806
v 0.830345 0.407565 0.006806
v 0.830345 0.550494 0.006806
v 0.680610 -0.028025 0.006806
v 0.387948 -0.313882 0.006806
v 0.387948 0.836350 0.006806
v 0.245020 0.836350 0.006806
v 0.095285 -0.599738 0.006806
v 0.095285 0.986084 0.006806
v -0.047643 -0.599738 0.006806
v -0.197377 -0.599738 0.006806
v -0.490039 -0.313882 0.006806
v -0.490039 0.836350 0.006806
v -0.782702 -0.028025 0.006806
v -0.932436 0.264637 0.006806
v -0.932436 0.407565 0.006806
v -0.932436 0.550494 0.006806
v -0.782702 0.693422 -0.040837
v 0.973273 0.155740 -0.122510
v 0.973273 0.353117 -0.122510
v 0.966467 0.475626 -0.122510
v 0.925630 -0.055250 -0.122510
v 0.925630 0.046842 -0.122510
v 0.925630 0.530075 -0.122510
v 0.871181 0.543688 -0.122510
v 0.864375 -0.170953 -0.122510
v 0.864375 0.598136 -0.122510
v 0.803120 -0.293463 -0.122510
v 0.769090 0.720646 -0.122510
v 0.694223 -0.422779 -0.122510
v 0.680610 -0.313882 -0.122510
v 0.680610 0.795513 -0.122510
v 0.585325 -0.545289 -0.122510
v 0.537682 0.863574 -0.122510
v 0.476427 -0.674605 -0.122510
v 0.387948 -0.599738 -0.122510
v 0.387948 0.931635 -0.122510
v 0.374336 0.883993 -0.122510
v 0.360724 -0.749472 -0.122510
v 0.313081 1.020115 -0.122510
v 0.292663 0.938442 -0.122510
v 0.251826 -0.824339 -0.122510
v 0.245020 0.986084 -0.122510
v 0.210989 1.060951 -0.122510
v 0.108898 -0.878788 -0.122510
v 0.102092 1.094982 -0.122510
v 0.095285 -0.742666 -0.122510
v -0.000000 -0.892401 -0.122510
v -0.047643 -0.742666 -0.122510
v -0.088479 -0.892401 -0.122510
v -0.088479 1.129012 -0.122510
v -0.102092 -0.831146 -0.122510
v -0.122510 -0.885594 -0.122510
v -0.197377 -0.742666 -0.122510
v -0.231408 1.122206 -0.122510
v -0.245020 -0.871982 -0.122510
v -0.374336 1.094982 -0.122510
v -0.421978 -0.776697 -0.122510
v -0.524070 -0.660993 -0.122510
v -0.537682 1.020115 -0.122510
v -0.592131 0.999696 -0.122510
v -0.619355 -0.545289 -0.122510
v -0.653386 0.958860 -0.122510
v -0.694223 0.924829 -0.122510
v -0.714641 -0.429585 -0.122510
v -0.782702 0.121709 -0.122510
v -0.796314 0.863574 -0.122510
v -0.803120 -0.307076 -0.122510
v -0.823539 0.101291 -0.122510
v -0.864375 0.053648 -0.122510
v -0.884794 -0.177760 -0.122510
v -0.891600 0.802320 -0.122510
v -0.932436 -0.068862 -0.122510
v -0.932436 0.693422 -0.122510
v -0.939242 0.741065 -0.122510
v -0.952855 0.101291 -0.122510
v -0.973273 0.046842 -0.122510
v -0.993691 0.591330 -0.122510
v -0.993691 0.679810 -0.122510
v -1.014109 0.148933 -0.122510
v -1.041334 0.564106 -0.122510
v -1.054946 0.223801 -0.122510
v -1.068558 0.482433 -0.122510
v -1.075364 0.359923 -0.122510
vt 16.497499 0.180000
vt 16.497499 0.232500
vt 16.445000 0.232500
vt 16.445000 0.180000
vt 16.552500 0.232500
vt 16.552500 0.180000
vt 16.660000 0.337500
vt 16.552500 0.337500
vt 16.445000 0.337500
vt 16.337500 0.337500
vt 16.337500 0.232500
vt 16.660000 0.442500
vt 16.767500 0.442500
vt 16.552500 0.442500
vt 16.337500 0.550000
vt 16.445000 0.655000
vt 16.445000 0.550000
vt 16.445000 0.442500
vt 16.337500 0.442500
vt 16.230000 0.442500
vt 16.230000 0.337500
vt 16.767500 0.497500
vt 16.660000 0.550000
vt 16.767500 0.550000
vt 16.264999 0.252500
vt 16.552500 0.550000
vt 16.230000 0.550000
vt 16.822500 0.602500
vt 16.822500 0.655000
vt 16.767500 0.655000
vt 16.767500 0.602500
vt 16.822500 0.550000
vt 16.660000 0.655000
vt 16.552500 0.655000
vt 16.337500 0.655000
vt 16.230000 0.655000
vt 16.337500 0.760000
vt 16.230000 0.745000
vt 16.230000 0.602500
vt 16.174999 0.602500
vt 16.174999 0.550000
vt 16.174999 0.655000
vt 16.767500 0.707500
vt 16.822500 0.707500
vt 16.660000 0.760000
vt 16.552500 0.760000
vt 16.445000 0.760000
vt 16.389999 0.760000
vt 16.389999 0.815000
vt 16.445000 0.815000
vt 16.480000 0.125000
vt 16.517500 0.147500
vt 16.139999 0.647500
vt 16.125000 0.627500
vt 16.122499 0.582500
vt 16.139999 0.470000
vt 16.139999 0.432500
vt 16.825001 0.725000
vt 16.807501 0.747500
vt 16.844999 0.702500
vt 16.844999 0.670000
vt 16.862499 0.660000
vt 16.872499 0.630000
vt 16.875000 0.585000
vt 16.867500 0.535000
vt 16.852501 0.507500
vt 16.830000 0.490000
vt 16.782499 0.490000
vt 16.797501 0.472500
vt 16.837500 0.470000
vt 16.822500 0.427500
vt 16.805000 0.387500
vt 16.742500 0.295000
vt 16.775000 0.340000
vt 16.635000 0.167500
vt 16.672501 0.210000
vt 16.707500 0.252500
vt 16.570000 0.132500
vt 16.525000 0.127500
vt 16.512501 0.125000
vt 16.440001 0.130000
vt 16.387501 0.150000
vt 16.305000 0.205000
vt 16.347500 0.177500
vt 16.184999 0.345000
vt 16.225000 0.297500
vt 16.162500 0.390000
vt 16.122499 0.510000
vt 16.160000 0.652500
vt 16.162500 0.672500
vt 16.197500 0.717500
vt 16.337500 0.765000
vt 16.342501 0.777500
vt 16.282499 0.770000
vt 16.372499 0.797500
vt 16.365000 0.827500
vt 16.442499 0.855000
vt 16.402500 0.842500
vt 16.512501 0.867500
vt 16.565001 0.865000
vt 16.617500 0.855000
vt 16.677500 0.827500
vt 16.697500 0.820000
vt 16.719999 0.805000
vt 16.735001 0.792500
vt 16.772499 0.770000
vn -0.0000 0.6709 -0.7415
vn 0.0000 -0.6709 0.7415
vn -0.2775 -0.2841 0.9178
vn 0.0000 -0.2957 0.9553
vn -0.0000 0.2957 -0.9553
vn 0.2775 -0.2841 0.9178
vn 0.3735 -0.3823 0.8452
vn 0.2775 0.2841 -0.9178
vn 0.1798 0.1841 -0.9663
vn 0.2005 0.2053 0.9579
vn -0.1798 0.1841 -0.9663
vn 0.0000 0.0000 1.0000
vn -0.2775 0.2841 -0.9178
vn 0.0000 -0.8360 0.5487
vn 0.2230 -0.6372 -0.7378
vn -0.5970 0.0000 0.8022
vn -0.1829 0.0000 0.9831
vn 0.3987 -0.1642 0.9023
vn 0.0000 0.0232 -0.9997
vn -0.1792 0.2015 -0.9630
vn 0.2007 -0.2007 0.9589
vn -0.2780 0.2780 -0.9195
vn 0.5087 0.0000 -0.8609
vn -0.5087 0.0000 0.8609
vn -0.0000 0.0000 -1.0000
vn -0.2005 0.2053 0.9579
vn 0.0000 0.2095 0.9778
vn -0.3895 -0.6119 -0.6884
vn 0.5087 0.0000 0.8609
vn -0.5087 0.0000 -0.8609
vn -0.3750 0.6220 0.6874
vn -0.3934 0.6340 0.6657
vn 0.2775 -0.2841 -0.9178
vn 0.0000 0.2957 0.9553
vn -0.5471 -0.5471 -0.6335
vn 0.5229 0.3922 0.7568
vn 0.6783 0.0377 0.7338
vn 0.4668 0.0000 0.8844
vn -0.4421 0.7737 0.4538
vn 0.7292 -0.2431 -0.6397
vn -0.6773 0.0376 0.7347
vn -0.7050 -0.1057 0.7013
vn -0.6261 -0.3415 0.7010
vn -0.4142 -0.5326 0.7381
vn 0.0000 -0.6207 0.7840
vn -0.5670 0.4860 0.6651
vn -0.5902 -0.2582 0.7649
vn -0.3727 -0.2691 0.8881
vn 0.5191 0.3278 -0.7894
vn -0.3094 -0.2730 0.9109
vn -0.3581 -0.2949 0.8859
vn -0.0172 -0.6708 0.7414
vn 0.4342 -0.2299 0.8710
vn 0.5453 -0.2386 0.8036
vn 0.6709 0.0000 0.7415
vn 0.1633 0.6533 0.7393
vn 0.9486 0.1186 0.2933
vn 0.7241 0.5632 0.3981
vn 0.4900 0.5791 0.6515
vn 0.3542 0.7439 0.5667
vn 0.4203 0.6305 0.6526
vn 0.2307 0.7383 0.6338
vn 0.1347 0.7544 0.6424
vn -0.0287 0.6036 0.7967
vn -0.1131 0.5936 0.7968
vn 0.2371 -0.5172 -0.8224
vn 0.1984 -0.5291 -0.8250
vn -0.3093 0.4639 0.8301
vn -0.3492 0.4191 0.8381
vn 0.2579 -0.4012 -0.8789
vn 0.2424 -0.4040 -0.8821
vn -0.2048 -0.0228 0.9785
vn 0.1011 -0.6675 0.7377
vn -0.2999 -0.3071 0.9032
vn -0.1130 0.4095 -0.9053
vn 0.4031 -0.0733 0.9122
vn -0.3615 -0.3701 0.8558
vn 0.3053 -0.3925 0.8676
vn -0.3084 -0.7953 0.5219
vn -0.3106 0.6213 0.7194
vn 0.4923 -0.2519 0.8332
vn -0.6887 0.0000 0.7250
vn -0.6709 0.0000 0.7415
vn 0.0000 0.6897 0.7241
vn -0.4713 0.1767 0.8641
vn 0.9536 0.0000 0.3011
vn 0.3900 0.6420 0.6600
vn -0.7454 0.4472 0.4943
vn -0.2873 0.2832 0.9150
vn 0.2473 -0.5196 -0.8179
vn -0.0000 -0.5087 -0.8609
vn 0.0000 0.9383 0.3457
vn 0.5471 0.5471 0.6335
vn 0.6266 0.2848 0.7255
vn -0.5118 0.2619 -0.8182
vn -0.2473 0.4947 -0.8331
vn -0.6632 0.3684 0.6515
vn 0.1170 0.9358 0.3325
vn -0.0761 0.6134 0.7861
vn -0.3446 0.4268 0.8361
vn -0.4534 -0.4534 -0.7673
usemtl Object
s off
f 71/1/1 32/2/1 30/3/1
f 30/3/2 71/1/2 69/4/2
f 32/2/2 33/5/2 76/6/2
f 32/2/2 76/6/2 71/1/2
f 34/7/3 33/5/3 14/8/3
f 32/2/4 14/8/4 33/5/4
f 10/9/4 32/2/4 30/3/4
f 10/9/5 32/2/5 14/8/5
f 27/10/6 10/9/6 30/3/6
f 27/10/7 30/3/7 58/11/7
f 17/12/8 34/7/8 36/13/8
f 3/14/9 14/8/9 17/12/9
f 8/15/10 12/16/10 1/17/10
f 14/8/11 3/14/11 11/18/11
f 11/18/12 14/8/12 10/9/12
f 7/19/12 11/18/12 10/9/12
f 27/10/13 10/9/13 7/19/13
f 27/10/13 7/19/13 26/20/13
f 26/20/7 27/10/7 53/21/7
f 88/22/14 18/23/14 20/24/14
f 36/13/15 88/22/15 17/12/15
f 18/23/16 88/22/16 17/12/16
f 17/12/17 3/14/17 18/23/17
f 53/21/18 27/10/18 55/25/18
f 1/17/19 3/14/19 2/26/19
f 1/17/20 11/18/20 3/14/20
f 8/15/21 1/17/21 11/18/21
f 8/15/12 11/18/12 7/19/12
f 4/27/12 8/15/12 7/19/12
f 26/20/22 7/19/22 4/27/22
f 38/28/23 39/29/23 22/30/23
f 22/30/24 38/28/24 21/31/24
f 37/32/23 38/28/23 21/31/23
f 21/31/24 37/32/24 20/24/24
f 21/31/12 19/33/12 22/30/12
f 20/24/25 21/31/25 18/23/25
f 19/33/12 21/31/12 18/23/12
f 15/34/12 19/33/12 18/23/12
f 15/34/26 18/23/26 2/26/26
f 12/16/27 15/34/27 2/26/27
f 1/17/27 12/16/27 2/26/27
f 9/35/25 8/15/25 12/16/25
f 6/36/28 28/37/28 54/38/28
f 5/39/12 8/15/12 4/27/12
f 9/35/12 5/39/12 6/36/12
f 8/15/12 5/39/12 9/35/12
f 24/40/29 5/39/29 4/27/29
f 23/41/30 4/27/30 24/40/30
f 5/39/30 6/36/30 25/42/30
f 25/42/29 5/39/29 24/40/29
f 40/43/31 96/44/31 39/29/31
f 40/43/32 39/29/32 22/30/32
f 19/33/33 35/45/33 16/46/33
f 16/46/12 19/33/12 15/34/12
f 15/34/25 16/46/25 13/47/25
f 13/47/12 15/34/12 12/16/12
f 29/48/34 9/35/34 28/37/34
f 12/16/29 29/48/29 13/47/29
f 9/35/34 29/48/34 12/16/34
f 65/49/35 29/48/35 31/50/35
f 70/51/12 71/1/12 74/52/12
f 46/53/36 24/40/36 43/54/36
f 43/54/37 24/40/37 42/55/37
f 45/56/38 26/20/38 44/57/38
f 97/58/12 96/44/12 94/59/12
f 101/60/12 96/44/12 97/58/12
f 100/61/12 96/44/12 101/60/12
f 103/62/39 39/29/39 100/61/39
f 103/62/40 39/29/40 105/63/40
f 106/64/41 38/28/41 105/63/41
f 104/65/42 37/32/42 106/64/42
f 102/66/43 37/32/43 104/65/43
f 98/67/44 37/32/44 102/66/44
f 91/68/45 37/32/45 98/67/45
f 92/69/46 36/13/46 91/68/46
f 99/70/12 95/71/12 92/69/12
f 93/72/47 36/13/47 95/71/47
f 87/73/48 34/7/48 90/74/48
f 93/72/49 36/13/49 90/74/49
f 80/75/50 33/5/50 81/76/50
f 81/76/51 34/7/51 84/77/51
f 84/77/51 34/7/51 87/73/51
f 78/78/12 76/6/12 80/75/12
f 75/79/12 74/52/12 78/78/12
f 72/80/12 70/51/12 74/52/12
f 14/8/8 34/7/8 17/12/8
f 67/81/12 69/4/12 70/51/12
f 64/82/12 69/4/12 67/81/12
f 57/83/12 58/11/12 61/84/12
f 30/3/52 69/4/52 61/84/52
f 50/85/12 53/21/12 52/86/12
f 52/86/12 53/21/12 55/25/12
f 55/25/12 58/11/12 57/83/12
f 44/57/53 26/20/53 48/87/53
f 48/87/12 53/21/12 50/85/12
f 41/88/54 23/41/54 45/56/54
f 42/55/55 23/41/55 41/88/55
f 47/89/56 24/40/56 46/53/56
f 49/90/57 25/42/57 47/89/57
f 51/91/58 25/42/58 49/90/58
f 54/38/59 6/36/59 51/91/59
f 59/92/12 60/93/12 56/94/12
f 28/37/60 54/38/60 56/94/60
f 63/95/61 29/48/61 60/93/61
f 63/95/25 65/49/25 62/96/25
f 68/97/62 31/50/62 66/98/62
f 66/98/12 65/49/12 62/96/12
f 73/99/63 31/50/63 68/97/63
f 77/100/64 16/46/64 73/99/64
f 79/101/65 16/46/65 77/100/65
f 79/101/66 35/45/66 82/102/66
f 82/102/67 35/45/67 83/103/67
f 85/104/68 35/45/68 83/103/68
f 86/105/69 35/45/69 85/104/69
f 89/106/70 40/43/70 94/59/70
f 86/105/71 40/43/71 89/106/71
f 3/14/72 2/26/72 18/23/72
f 69/4/25 70/51/25 71/1/25
f 76/6/12 74/52/12 71/1/12
f 33/5/73 80/75/73 76/6/73
f 34/7/74 81/76/74 33/5/74
f 27/10/75 55/25/75 58/11/75
f 30/3/76 61/84/76 58/11/76
f 36/13/77 90/74/77 34/7/77
f 53/21/78 48/87/78 26/20/78
f 20/24/79 37/32/79 88/22/79
f 88/22/80 91/68/80 36/13/80
f 26/20/81 23/41/81 4/27/81
f 39/29/82 105/63/82 38/28/82
f 38/28/83 106/64/83 37/32/83
f 19/33/84 40/43/84 22/30/84
f 96/44/85 40/43/85 94/59/85
f 23/41/55 42/55/55 24/40/55
f 24/40/86 47/89/86 25/42/86
f 25/42/87 51/91/87 6/36/87
f 96/44/88 100/61/88 39/29/88
f 69/4/12 64/82/12 61/84/12
f 35/45/89 40/43/89 19/33/89
f 35/45/90 79/101/90 16/46/90
f 16/46/91 31/50/91 13/47/91
f 28/37/92 60/93/92 29/48/92
f 9/35/34 6/36/34 28/37/34
f 29/48/93 63/95/93 65/49/93
f 65/49/94 66/98/94 31/50/94
f 26/20/95 23/41/95 45/56/95
f 37/32/96 88/22/96 91/68/96
f 92/69/97 95/71/97 36/13/97
f 78/78/12 74/52/12 76/6/12
f 60/93/98 28/37/98 56/94/98
f 73/99/99 16/46/99 31/50/99
f 86/105/100 40/43/100 35/45/100
f 29/48/101 13/47/101 31/50/101
