# Blender v2.78 (sub 4) OBJ File: 'demensdeumLogo.blend'
# www.blender.org
mtllib demensdeumLogo.mtl
o Cube
v -1.578085 -1.000000 1.000000
v -1.578085 1.000000 1.000000
v -1.578085 -1.000000 -1.000000
v -1.578085 1.000000 -1.000000
v 1.578085 -1.000000 1.000000
v 1.578085 1.000000 1.000000
v 1.578085 -1.000000 -1.000000
v 1.578085 1.000000 -1.000000
vt 0.031119 1.000233
vt 0.327195 0.192791
vt 0.031119 -0.000233
vt 0.327195 0.807208
vt 0.672805 0.192791
vt 0.672805 0.807208
vt 0.968881 -0.000233
vt 0.968881 1.000233
vn -1.0000 0.0000 0.0000
vn 0.0000 0.0000 -1.0000
vn 1.0000 0.0000 0.0000
vn 0.0000 0.0000 1.0000
vn 0.0000 -1.0000 0.0000
vn 0.0000 1.0000 0.0000
usemtl None
s off
f 2/1/1 3/2/1 1/3/1
f 4/4/2 7/5/2 3/2/2
f 8/6/3 5/7/3 7/5/3
f 6/8/4 1/3/4 5/7/4
f 7/5/5 1/3/5 3/2/5
f 4/4/6 6/8/6 8/6/6
f 2/1/1 4/4/1 3/2/1
f 4/4/2 8/6/2 7/5/2
f 8/6/3 6/8/3 5/7/3
f 6/8/4 2/1/4 1/3/4
f 7/5/5 5/7/5 1/3/5
f 4/4/6 2/1/6 6/8/6
